<svg xmlns="http://www.w3.org/2000/svg" viewBox="0 0 64 64" role="img" aria-label="WhatsApp">
  <circle cx="32" cy="32" r="31" fill="#25D366"/>
  <path fill="#fff" d="M32.02 10.7c-11.65 0-21.13 9.47-21.13 21.1 0 3.72.98 7.35 2.84 10.55L10.7 53.3l11.2-2.94a21.1 21.1 0 0 0 10.1 2.57h.01c11.64 0 21.12-9.47 21.13-21.12 0-5.64-2.19-10.94-6.18-14.93A20.98 20.98 0 0 0 32.02 10.7Zm0 38.65h-.01a17.52 17.52 0 0 1-8.93-2.44l-.64-.38-6.65 1.75 1.78-6.48-.42-.67a17.49 17.49 0 0 1-2.68-9.33c0-9.68 7.88-17.55 17.56-17.55 4.69 0 9.1 1.83 12.42 5.15a17.44 17.44 0 0 1 5.14 12.42c0 9.68-7.88 17.55-17.57 17.55Zm9.62-13.15c-.53-.26-3.12-1.54-3.6-1.72-.48-.18-.84-.26-1.19.27-.35.52-1.36 1.72-1.67 2.07-.31.35-.62.39-1.15.13-.53-.26-2.23-.82-4.25-2.62-1.57-1.4-2.63-3.13-2.94-3.66-.31-.53-.03-.81.23-1.08.24-.24.53-.62.79-.93.26-.31.35-.53.53-.88.18-.35.09-.66-.04-.93-.13-.26-1.19-2.86-1.63-3.92-.43-1.03-.86-.89-1.19-.91-.31-.02-.66-.02-1.01-.02s-.93.13-1.41.66c-.48.53-1.85 1.81-1.85 4.41s1.9 5.12 2.16 5.47c.26.35 3.74 5.7 9.06 7.99 1.27.55 2.25.87 3.02 1.12 1.27.4 2.42.34 3.33.21 1.02-.15 3.12-1.27 3.56-2.5.44-1.23.44-2.29.31-2.51-.13-.22-.48-.35-1.01-.62Z"/>
</svg>